#!OML:ASF H:\Martial Arts Walks\Project 1\Capture day 1\Session 1\male.ASF
:FULLY-SPECIFIED
:DEGREES
2307
root -1.47691 17.0892 -50.2912 3.67935 2.42156 -1.56528
lowerback 5.78022 1.03603 -1.72292
upperback -2.16979 1.31309 1.25334
thorax -5.56921 0.734577 2.13279
lowerneck -5.38426 7.54778 3.1508
upperneck 26.471 9.85918 1.58664
head 9.27448 5.10488 0.952433
rclavicle 2.36367e-015 6.4605e-015
rhumerus -43.593 2.54626 -82.1562
rradius 37.1222
rwrist -2.15526
rhand -10.3715 -19.5799
rfingers 7.12502
rthumb 15.6259 -48.9687
lclavicle 2.36367e-015 6.4605e-015
lhumerus 18.7128 -35.6476 86.0604
lradius 128.84
lwrist 6.60772
lhand -18.862 32.8044
lfingers 7.12502
lthumb 7.43833 -297.346
rfemur -18.9527 3.963 18.8904
rtibia 39.7473
rfoot -15.915 -11.6179
rtoes -7.20694
lfemur -8.83885 -7.05294 -6.20965
ltibia 28.0934
lfoot -6.80702 14.0717
ltoes -22.8865
2308
root -1.53456 17.0938 -50.2934 3.69417 2.67584 -1.53566
lowerback 5.85313 1.15177 -1.65564
upperback -2.11007 1.46357 1.09316
thorax -5.54941 0.802647 1.91115
lowerneck -5.43369 7.71998 3.43296
upperneck 26.9995 10.1455 1.32875
head 9.50814 5.23726 0.869818
rclavicle 7.01958e-016 -1.46604e-014
rhumerus -43.7094 2.37136 -82.3394
rradius 36.7094
rwrist -2.13044
rhand -10.35 -19.62
rfingers 7.12502
rthumb 15.6466 -49.0073
lclavicle 7.01958e-016 -1.46604e-014
lhumerus 18.0473 -35.7038 86.5078
lradius 129.117
lwrist 6.29176
lhand -19.2409 32.9013
lfingers 7.12502
lthumb 7.07265 -297.237
rfemur -18.9424 3.78605 19.0855
rtibia 39.7423
rfoot -15.9303 -11.6681
rtoes -6.92052
lfemur -9.05945 -7.09116 -5.94804
ltibia 28.1946
lfoot -6.57876 13.6067
ltoes -23.1183
2309
root -1.59347 17.098 -50.2961 3.71043 3.0029 -1.50659
lowerback 5.94378 1.25836 -1.59225
upperback -2.04915 1.60095 0.925657
thorax -5.53658 0.864366 1.68517
lowerneck -5.48659 7.88443 3.69791
upperneck 27.5161 10.4189 1.10244
head 9.73903 5.36463 0.799589
rclavicle -1.23303e-014 -1.36292e-014
rhumerus -43.8374 2.22494 -82.5524
rradius 36.3113
rwrist -2.10553
rhand -10.2899 -19.6783
rfingers 7.12502
rthumb 15.7044 -49.0611
lclavicle -1.23303e-014 -1.36292e-014
lhumerus 17.3962 -35.783 86.9243
lradius 129.406
lwrist 6.14327
lhand -19.5567 33.049
lfingers 7.12502
lthumb 6.76781 -297.079
rfemur -18.9261 3.58607 19.2899
rtibia 39.7411
rfoot -15.9452 -11.7643
rtoes -6.6179
lfemur -9.32423 -7.14422 -5.67165
ltibia 28.3108
lfoot -6.35156 13.097
ltoes -23.3153
2310
root -1.65365 17.1019 -50.2989 3.72805 3.40365 -1.46904
lowerback 6.04272 1.34578 -1.55094
upperback -1.97707 1.71085 0.758976
thorax -5.51534 0.913224 1.47534
lowerneck -5.57842 8.05571 3.90075
upperneck 28.03 10.6986 0.932204
head 9.97265 5.49367 0.761313
rclavicle 3.13754e-014 7.10655e-015
rhumerus -43.9479 2.1389 -82.7924
rradius 35.9283
rwrist -2.09765
rhand -10.1731 -19.7679
rfingers 7.12502
rthumb 15.8169 -49.1418
lclavicle 3.13754e-014 7.10655e-015
lhumerus 16.7877 -35.8583 87.2945
lradius 129.703
lwrist 6.13265
lhand -19.8696 33.2856
lfingers 7.12502
lthumb 6.46574 -296.833
rfemur -18.9013 3.3635 19.4939
rtibia 39.744
rfoot -15.9658 -11.9105
rtoes -6.29484
lfemur -9.6308 -7.21068 -5.39151
ltibia 28.4372
lfoot -6.11921 12.5417
ltoes -23.5004
2311
root -1.71446 17.1053 -50.3011 3.73843 3.84632 -1.42554
lowerback 6.15233 1.42506 -1.52784
upperback -1.89327 1.80837 0.593976
thorax -5.48731 0.956589 1.2787
lowerneck -5.69455 8.23121 4.05405
upperneck 28.5335 10.9833 0.801314
head 10.2048 5.62327 0.746587
rclavicle 1.63438e-014 -1.66979e-014
rhumerus -44.051 2.12244 -83.0628
rradius 35.5652
rwrist -2.10107
rhand -10.013 -19.9218
rfingers 7.12502
rthumb 15.9711 -49.2834
lclavicle 1.63438e-014 -1.66979e-014
lhumerus 16.2134 -35.941 87.6181
lradius 129.978
lwrist 6.16606
lhand -20.2267 33.4748
lfingers 7.12502
lthumb 6.12096 -296.634
rfemur -18.862 3.1283 19.6963
rtibia 39.7512
rfoot -15.9931 -12.0867
rtoes -5.96977
lfemur -9.94951 -7.29289 -5.11491
ltibia 28.5666
lfoot -5.88612 11.972
ltoes -23.6665
